<svg xmlns="http://www.w3.org/2000/svg" viewBox="0 0 16 30.06"><defs><style>.cls-1{fill:#fff;}</style></defs><g id="katman_2" data-name="katman 2"><g id="katman_1-2" data-name="katman 1"><g id="flag_2"><polygon points="16 22.55 8 30.06 0 22.55 0 0 16 0 16 22.55"/><path id="sembol_2" class="cls-1" d="M6.56,21.77c-.42-1.21.62-.39,1.27-2.82C6,18.65,4.07,22.7,5.24,20c-2,.74.78-.25,1.25-1A2.41,2.41,0,0,0,4,19.71c0-.33.55-.57.82-.92C1.13,19.1,10.24,18.54,7,16c-1,1.13-2.92.25-3.9-.48-.19-.31-1.28-2-.34-1.89,0-.42-.32-1,.36-.83.47-.39-.5-1.84.33-1.69.08-.33-.31-1.08.35-.83-.1-.6.63-.42.92-.41.57.23.17-.81.76-.35.13-.31-.11-1.12.49-.74,0-.28,1.48-1.09,1.44-.43.19-.46.44-.47.65,0,.29-.34.55-.48.71,0,0-.65,1.44.23,1.38.45.55-.41.4.37.47.72.59-.39.21.56.74.37.76-.1,1.43.31,1.22,1.24,1-.28-.49,1.48.37,1.4l0,.3c.64-.24.32.46.35.84.95,0-.25,2.21-1.12,2.05-.68.91-2.49.82-3.53.48C8.24,19,11,18.27,12.68,19l-1.22-.22c.27.35.85.64.88,1A2.45,2.45,0,0,0,9.88,19c.45.82,3.17,1.55,1.2,1,.48.72,1.38,1.05.08.47.53,1.5-1.23-1.87-2.45-1.64C7.56,20,12.13,22.21,9.7,21c.26,1.86,0-.53-1-.73s0,1.36.18,1.74l-.18-.24-.12.19a2.59,2.59,0,0,0-.51-1,1.32,1.32,0,0,0-.25.91l-.12-.17-.23.36A4.48,4.48,0,0,0,8,20.13C7.07,20.19,6.83,21.18,6.56,21.77Z"/></g></g></g></svg>