<svg xmlns="http://www.w3.org/2000/svg" viewBox="0 0 16 30.06"><defs><style>.cls-1{fill:red;}</style></defs><g id="katman_2" data-name="katman 2"><g id="katman_1-2" data-name="katman 1"><g id="flag_3"><polygon points="16 22.55 8 30.06 0 22.55 0 0 16 0 16 22.55"/><path id="sembol_3" class="cls-1" d="M6.81,17.46c-.4.36-.82.81-.49,1.38a1.77,1.77,0,0,0,1,.76,1.23,1.23,0,0,0,1.4-.74A4.7,4.7,0,0,0,9,17.18a11.46,11.46,0,0,0-.2-1.69l.7.34c.18-1.13,1.34-1,1.93-1.57.07-.07.31,0,.46.08s.33.17.58.3l-.14-1.54h.07l.47,1.18a2.5,2.5,0,0,1,2.33.43A8.27,8.27,0,0,0,10,10.43c.26.31.42.48.56.66.56.77.59,1.75,0,2.13a2.54,2.54,0,0,1-1.36.38c-.27,0-.52-.44-.77-.68s-.22-.24-.35-.34A2.93,2.93,0,0,0,7.33,12c-.23-.09-1,.75-1.09,1.08H7l.42,0c0,.16.08.37,0,.45a.58.58,0,0,1-.46.15,4.64,4.64,0,0,1-.64-.17c-1.15-.17-1.58-.92-1.09-2a9.13,9.13,0,0,1,.7-1.06,8.1,8.1,0,0,0-5,4.26,2.39,2.39,0,0,1,2.33-.46l.47-1.16.06,0-.12,1.51c.91-.5.91-.5,1.68.11a.29.29,0,0,0,.16.07c.68,0,1,.44,1.14,1l.64-.34.67,1.08a2.12,2.12,0,0,1,.25,1.86A.92.92,0,0,1,7,19c-.5-.21-.52-.62-.4-1.07A5.21,5.21,0,0,1,6.81,17.46Z"/></g></g></g></svg>