<svg xmlns="http://www.w3.org/2000/svg" viewBox="0 0 16 30.06"><defs><style>.cls-1{fill:blue;}.cls-2{fill:#ff0;}</style></defs><g id="katman_2" data-name="katman 2"><g id="katman_1-2" data-name="katman 1"><g id="flag_4"><polygon class="cls-1" points="16 22.55 8 30.06 0 22.55 0 0 16 0 16 22.55"/><path id="sembol_4" class="cls-2" d="M4.92,15a3.09,3.09,0,0,1,6.17.05A3.09,3.09,0,0,1,4.92,15Zm-.31-1.13L1.53,15l3.08,1.14A3.31,3.31,0,0,1,4.61,13.87Zm.19,2.72-1.37,3,3-1.37A3.24,3.24,0,0,1,4.8,16.59Zm3.2-8L6.86,11.62a3.25,3.25,0,0,1,2.28,0ZM6.41,11.8l-3-1.37,1.37,3A3.34,3.34,0,0,1,6.41,11.8Zm3.17,0a3.18,3.18,0,0,1,1.62,1.61l1.38-3Zm1.62,4.78a3.26,3.26,0,0,1-1.61,1.62l3,1.37ZM8,21.52a28.25,28.25,0,0,1,1.16-3.14,3.31,3.31,0,0,1-2.32,0Zm3.38-5.38L14.47,15l-3.08-1.14A3.28,3.28,0,0,1,11.4,16.14Z"/></g></g></g></svg>