<svg xmlns="http://www.w3.org/2000/svg" viewBox="0 0 16 30.06"><defs><style>.cls-1{fill:red;}.cls-2{fill:#ff0;}</style></defs><g id="katman_2" data-name="katman 2"><g id="katman_1-2" data-name="katman 1"><g id="flag_1"><polygon class="cls-1" points="16 22.55 8 30.06 0 22.55 0 0 16 0 16 22.55"/><path id="sembol_1" class="cls-2" d="M9,16.78c2.18.3-.37,4,2.69,2.9.42,0,1.16.31,1.09.78-.8-.66-.22.4-.3.76-.35-.7-.65-.1-.68.37-.62-1.12-4-.59-3.25-2.48-1.37-.83-2.29.36-.6-2.05-.1,1.88-5.6,2.61-2.94,3.35.88,0,1,.73.65,1.37-.26-.76-.33-.29-.5.18-.17-.67-.49-.39-.76,0-.6-1.1-1.34-1.13-.92-2.69-.83-1.64.79-.68,1.26-1.53C4.7,16.63,2.27,16.7,4,15c2.09-2.39-.24-3.8-2.34-2.29,1.73-.93,1.46-2.86.53-4.16,1.7-.12,1.11,1.3,1.71,2.21-.12-1.56,2.28-1.55.49-.21-.45,1,1.29,1.84.81,3,.22,1.07-2.7,2.93-.53,3,1.11-1.79,5.87-2.78,1.77-2C7.91,14.17,5.07,12.33,6,11,5.87,9.2,5.85,8.56,8.12,8.1c-1.22,1,2.84-.23,2.24,1.44-.13.86-1.18-.14-1.51.9.21.48,1.24.24,1.15-.28,1.13.37-.66,2,1.08,1.22-.22.44-.09.62.43,1,1.07-.86.08-3,1.75-2.93-.46.41.45.32.69.43-.83.18-.12.53.22.62-1.85.81-1,4-3.65,4.3,1.32-.13,2.28-.6,3.49-.5-.79.3.27.38.31.77-.62-.25-.51.16-.27.53C11.31,15.65,11.27,15.56,9,16.78ZM7.72,10.33a3.17,3.17,0,0,0-.65.35c.53-1.15.06-.55-.13.25.89-.77.37-.15.33.51.19-.17.31-.42.5-.56.13.45,1,1.75,1.14.69.23.39.54,1,1,1-.52-.28-1-1.74-1.25-.66-.35-.4-.16-1.35-.72-.55C8.17,10,7,11.72,7.72,10.33ZM9.65,14.7a1.63,1.63,0,0,0,.85-.31c-.14.2-.36.32-.44.56.26-.25.61-.48.68-.85A3.64,3.64,0,0,1,9.65,14.7ZM8.35,9c-.16,0-.29.23-.46.33l.59-.12C8.42,9.18,8.27,9.19,8.35,9Z"/></g></g></g></svg>