<svg xmlns="http://www.w3.org/2000/svg" viewBox="0 0 16 30.06"><defs><style>.cls-1{fill:#fff;}.cls-2{fill:red;}</style></defs><g id="katman_2" data-name="katman 2"><g id="katman_1-2" data-name="katman 1"><g id="flag_5"><polygon class="cls-1" points="16 22.55 8 30.06 0 22.55 0 0 16 0 16 22.55"/><path id="sembol_5" class="cls-2" d="M12.17,14.86A10.6,10.6,0,0,1,12,17.41a4.7,4.7,0,0,1-1.45,2.46,17,17,0,0,1-2.29,1.68.41.41,0,0,1-.51,0A18.61,18.61,0,0,1,5.62,20,4.87,4.87,0,0,1,4.1,17.82a7.38,7.38,0,0,1-.28-1.93,22.67,22.67,0,0,1,.12-2.73l0-.33c0-.08,0-.11.11-.13.52-.14,1-.27,1.57-.43a10.17,10.17,0,0,0,2.22-1,.23.23,0,0,1,.25,0,10.47,10.47,0,0,0,2.2,1c.52.16,1,.29,1.57.42.09,0,.13.06.13.15C12.08,13.62,12.14,14.41,12.17,14.86Zm-1.51-4a.15.15,0,0,1,0-.11c.28-.49.56-1,.83-1.46a.34.34,0,0,1,.23-.17.54.54,0,0,0,.45-.42.62.62,0,0,0-.91-.7.61.61,0,0,0-.27.73.25.25,0,0,1,0,.17c-.29.52-.59,1-.88,1.53,0,0-.06.07-.08.07l-.64,0a.44.44,0,0,0,0-.1A.3.3,0,0,0,9.22,10a.31.31,0,0,0-.36.16A.32.32,0,0,0,9,10.6l.31.18.22.13-.37.7,1.11.46.34-.54.06,0c.16.09.33.2.5.28a.28.28,0,0,0,.39-.11.31.31,0,0,0-.45-.41L11,11.4ZM6,10.52a.15.15,0,0,1-.16-.09C5.57,9.94,5.29,9.44,5,9a.21.21,0,0,1,0-.2.62.62,0,0,0-.67-.83.62.62,0,0,0,0,1.23.25.25,0,0,1,.14.08l.89,1.54a.18.18,0,0,1,0,.1c-.11.18-.23.35-.34.52l-.1-.08a.32.32,0,0,0-.49.28.31.31,0,0,0,.46.24l.54-.3.34.54,1.11-.47-.37-.69.09-.06c.15-.09.32-.18.47-.28a.3.3,0,0,0,.09-.39A.34.34,0,0,0,6.76,10a.31.31,0,0,0-.2.35s0,.06,0,.1Zm5.11,9c-.15.15-.29.3-.43.46a.08.08,0,0,0,0,.09,6.33,6.33,0,0,0,.44.7c.3.39.62.76.93,1.14l.18.23A11.22,11.22,0,0,0,11.12,19.53Zm-6.88,2A8.43,8.43,0,0,0,5.3,20.12s0-.09,0-.11-.32-.29-.47-.43a11.53,11.53,0,0,0-1.08,2.57Z"/></g></g></g></svg>