<?xml version="1.0" standalone="no"?>
<!DOCTYPE svg PUBLIC "-//W3C//DTD SVG 20010904//EN"
 "http://www.w3.org/TR/2001/REC-SVG-20010904/DTD/svg10.dtd">
<svg version="1.0" xmlns="http://www.w3.org/2000/svg"
 width="64.000000pt" height="64.000000pt" viewBox="0 0 64.000000 64.000000"
 preserveAspectRatio="xMidYMid meet">

<g transform="translate(0.000000,64.000000) scale(0.100000,-0.100000)"
fill="#000000" stroke="none">
<path d="M223 622 c-109 -39 -178 -112 -210 -221 -29 -102 4 -228 82 -306 122
-121 328 -121 450 0 91 92 118 241 64 356 -69 146 -241 223 -386 171z m214
-60 c51 -27 98 -73 126 -126 31 -58 31 -174 0 -232 -28 -53 -74 -99 -127 -127
-58 -31 -174 -31 -232 0 -217 115 -197 413 33 499 51 19 148 12 200 -14z"/>
<path d="M307 464 c-4 -4 -7 -31 -7 -61 l0 -53 -54 0 c-36 0 -58 -5 -66 -15
-19 -23 -2 -33 60 -37 l55 -3 3 -57 c3 -49 6 -58 22 -58 16 0 19 9 22 58 l3
57 55 3 c62 4 79 14 60 37 -8 10 -30 15 -66 15 l-53 0 -3 57 c-3 52 -14 73
-31 57z"/>
</g>
</svg>
