<svg id="katman_1" data-name="katman 1" xmlns="http://www.w3.org/2000/svg" viewBox="0 0 2275.42 1647.21"><path id="b16" d="M445.25,488.94c-16.92,0-32.15,1.56-47.45,1.19-8-.2-15.88-1.79-23.88-1.12-19,1.61-37.69,3.33-56.18,9.38-13.58,4.43-25.87,10.16-35.2,20.29-10,10.91-23.16,16.42-35.09,24.05-9.12,5.83-19.58,8.07-30.08,10-12.55,2.27-24.8,6.08-37.52,7.53-9.87,1.13-19.7,3-29.6,3.33-10.35.34-17.69,5.87-25,11.88-2,1.65-3.11,1.95-5.88.76-8.24-3.53-16.93-6.19-26-3.1-5.36,1.83-10.88.56-16.33,1.48-6.15,1-12.53.51-18.7,2.27-3.15.9-5.23-.29-5.33-4.35a76.43,76.43,0,0,0-1.72-14.28c-2.36-10.81-7.52-14.2-18-10.54-7.78,2.72-15.23,2.37-23,1.37C7.74,548.74,7,548,7,545.38c0-6.22,1.72-12.09,2.7-18.13,2.79-17.13,10.21-33.37,9.52-51.17C18.83,467.15,16.18,460,9,454c-3.3-2.75-6.69-7-7.53-11.78a10.86,10.86,0,0,0-6.71-8.62,17.75,17.75,0,0,1-5.8-3.75c-8.08-8.69-18-15.11-27-22.65-3.47-2.9-7.47-5.08-11.5-5.62-8.79-1.18-16.65-5.25-25.29-6.83-10.9-2-21.43-4.87-32.89-2.34-5,1.1-10.86-.12-16.32-.39-6.11-.29-11.46,1.74-16.4,4.95-4,2.61-8.49,3.19-13,4.36-11.6,3-23.89,3.43-34.73,9.69-6.17,3.55-12.54,6.37-17.92,11.39-4.84,4.51-19.9,3.4-25.22-.71-3.13-2.41-1.13-5-.41-7.65,1.91-6.87,6.4-13,7-20.09,1.07-12.37,8.85-21.19,14.75-31.06.17-.28.5-.48.64-.76,7.23-14.87,21.63-26.33,23.26-43.57,1.23-13,9.53-20.61,16.77-29.41,5.13-6.23,11-11.72,14.07-19.62,1.46-3.75,5.7-6.32,8.18-9.78,11-15.34,21.22-31.13,22.16-50.77.62-12.74-6.62-23.1-17.94-26.07-4.91-1.29-7.69-5.59-11.22-8.73a43.93,43.93,0,0,0-10.19-7,145.47,145.47,0,0,1-21.55-13.31c-6.12-4.43-9.17-12.42-9.74-20.13-.82-11.21-2.24-22.46-1.23-33.76.09-1-.21-2.27.3-2.93,4.05-5.31.86-10.35-.29-15.51-4-17.79-9-35.47-10.59-53.61-.85-9.55,1.92-19.39,2.8-29.13,1-10.73,5.62-20,11.16-28.9a38.94,38.94,0,0,1,9.25-9.71c6.23-4.83,10.49-11,13.79-17.94,1.49-3.12,4-5.36,6.55-7.44,7.4-6,14.12-12.59,18.85-21,4.32-7.69,10.87-13.38,17.54-18.86,4.61-3.78,7.86-8.43,10.76-13.55,8.62-15.22,15.81-31.28,26.45-45.34a49.64,49.64,0,0,0,7.68-14.48c2.61-8,8.67-12.67,15.72-16.44,3-1.61,5.34.27,7.17,1.93,9.75,8.83,15.32,19.3,13.08,33.11-1.36,8.41-.55,17,1,25.33,2.91,15.85,1.86,30.8-4.94,45.7-4.1,9-5.52,19.11-6.15,29-.45,7.12-1.47,14.2-1.29,21.39a141,141,0,0,0,1.85,21.8A42.16,42.16,0,0,1-55.72-1.3c-2.32,13,2.88,24.45,8.1,35.82,2.77,6,5.75,12,8.54,18,2.7,5.84,8.63,9.21,11.28,15.11C-23.33,77.53-15.67,85-8,92.35c6.4,6.15,11.53,13.3,16.86,20.29,4.75,6.22,9.55,6.43,16.73,4.09S37.47,109.47,42.85,105c7.71-6.41,24.5-7.59,33.65-2.78a4.38,4.38,0,0,1,2.13,3.17c1.82,6.75,3.64,13.66,3.28,20.58-.5,9.77,3.06,18,8.3,25.54a129.65,129.65,0,0,1,11.54,19.76c5.94,13,15.55,24.15,19,38.23,3.63,15,12.2,27.95,16.26,42.69,1.4,5.09,5.31,8,9.48,10.44,16.38,9.51,33.13,18.18,51.08,24.58a127.77,127.77,0,0,1,45,27.84c4.89,4.6,11.33,6.28,17.37,8.24,8.83,2.87,17.78,5.33,26.46,8.66A24.69,24.69,0,0,0,296,334c23.8-.95,44.89,7.91,65.37,18.49,5.61,2.89,10.73,3.92,16.5,1.65a47.47,47.47,0,0,1,12.58-2.89c5.57-.56,10.92-.34,16.39,2.42,8.74,4.41,16.05,9.26,20.78,18.62a50.1,50.1,0,0,1,5.58,17A41.94,41.94,0,0,0,442,409.48c2.64,3.47,3.83,8,5.74,12.08,2.66,5.63,5.83,10.66,12.12,13.1a15.62,15.62,0,0,1,5.73,4.67c5.94,7.06,12,14.07,17.37,21.54,2.83,3.92,6.11,7.78,7.35,12.76.53,2.13.28,3.42-1.87,4.37C474.12,484.35,460,491.43,445.25,488.94Z" transform="translate(313.77 283.96)"/><path id="b15" d="M-60.56-198.68c2.73-2.3,5.19-2.1,7.65-2.24,12.31-.69,24.59,1.94,36.83.85A95.36,95.36,0,0,1,8.51-199c4.53.76,8.26,3.4,12.22,5.41A104,104,0,0,0,70-182c11.25-.17,21.93,2.93,32.83,4.67,7.2,1.14,14.29,2.87,21.63,2.41,13.51-.84,26.52,2.44,39.72,4.42,18.61,2.8,36.62,8.39,55.15,11.27,7.52,1.17,15.14,2.55,23.07,1.52,11.81-1.54,23.27,2.31,34.9,3.74,12.59,1.55,21.4,10.61,32.78,14.26,1.87.6,3.22,2.8,4.83,4.23,1.1,1,2,2.6,3.6,2.44,5.64-.55,4.94,3.18,5.62,7,1.91,10.65-2,19.71-6.39,28.84-1.84,3.8-4.05,7.63-3.75,12.11,1.51,22.32-6.63,41.62-17.47,60.55C291.8-16.32,285.15-11.88,278-6.45c-15.53,11.87-24.7,25.52-20,47.28,1.7,7.91,1.45,16,3.49,24,2.76,10.78,8.66,18.72,16.08,26.67,10.84,11.62,23.64,21,34.66,32.34a12.62,12.62,0,0,1,3,4.47c3.39,9.07,9.93,15.31,18,20.56,7.4,4.83,14.95,9,23.41,11.58a22.38,22.38,0,0,0,8.4.54c4.09-.32,5.16,1.41,5,5.2a171.35,171.35,0,0,0,0,18c.43,6.46,2.14,12.52,8.92,15.48,7.46,3.26,12,9.52,16.11,16.09,5.64,9,11.31,18.06,11.94,29.24.4,7.25.79,14.6,2.23,21.69,1.08,5.38.19,10.17-1.4,15.06a14.49,14.49,0,0,1-2.62,5.32c-6.57,7.08-7.11,15.15-4.84,24.05,1.2,4.68,1,9.07-2.75,13.36-2.39,2.76-3.83,6.73-5.56,10.2-2,4-6.4,6.71-6.23,11.83a1.91,1.91,0,0,1-.79,1.19c-4.64,3.44-17.09,4-22.17.87-15.46-9.46-32.77-14-50.08-18.23-6.07-1.5-12.61.44-18.88-.82-9.27-1.86-17.83-6-26.89-8.53-3.63-1-7.29-2.08-10.9-3.17-9.47-2.88-15.76-10.23-23.27-15.75-14.19-10.42-29.76-17.88-46.21-23.61-14-4.9-26.43-12.92-39.33-20-3.78-2.07-6.09-6-7.36-10.32-2.55-8.76-6.84-16.82-10.39-25.18s-5.16-17.39-9.15-25.66a158.89,158.89,0,0,0-7.82-14.86c-4.82-7.76-8.59-16-12.63-24.14a38.85,38.85,0,0,0-4.3-6c-6.32-8.25-9.86-17.3-9.71-28,.11-7.92-2-15.7-3.86-23.42-.29-1.23-.71-2.37-2-2.61-9.69-1.85-19.2-5-29.36-2.29C42.66,98.19,37,103.73,31,108.82c-3.13,2.64-7,3.48-10.58,5-3.32,1.41-6.77-.67-8.51-3.7C5.05,98.28-5.88,90.13-14.58,80-19.92,73.77-22.65,65.85-28,59.84c-12-13.32-16.87-30.17-23.2-46.22C-53,9.27-52.64,3.55-51.61-1.2c1.77-8.17-.64-15.83-1.57-23.61a98.21,98.21,0,0,1-.35-21.86C-53-52.08-53.16-57.54-52-63-49.7-74-48.26-85.27-43.49-95.77c4.46-9.79,4.07-20.2,3-30.74-1.14-11.47-3.21-22.8-1.66-34.6,2-14.93-4.11-27.15-16.36-36.11Z" transform="translate(313.77 283.96)"/><path id="b14" d="M598.67,453c-14.91-.12-29.9-.9-44.35,4-5.77,1.95-11.55,4-17.11,6.46-12.73,5.68-26.25,8.58-39.68,11.83-2.3.56-2.18-.42-2.8-2-3.4-8.54-7.65-16.53-14.28-23.17a95.44,95.44,0,0,1-9.31-11.46c-1.68-2.31-3.31-4.58-5.91-5.84-8.53-4.12-13.16-11.15-16.18-19.92-2-5.78-6.75-10.2-9.2-16a31.16,31.16,0,0,1-2.65-11.17c-.16-7.45-3-13.22-7.68-18.57a32.35,32.35,0,0,1-3.07-5.08c-2-3.35-4.33-6.09-8.2-7.51a36.85,36.85,0,0,1-7.83-4.1c-4.63-3.11-10.06-4-15.69-3.51-1.19.1-2.83.57-3.51-1.05s.45-2.69,1.23-4c2.54-4.32,4.92-9,7.89-12.77C406.8,321,405,312.78,403.17,304a13.62,13.62,0,0,1,2.79-10.8c6.87-9.14,9.34-19,7-30.33-1.83-9.06-.94-18.5-3.13-27.54-2-8.42-6.83-15.49-11.53-22.58-.36-.54-1.09-.92-1.27-1.49-2.59-8.51-10.16-11.79-16.74-16.13-4-2.62-5.76-7-6.17-11.18-.71-7.26-.19-14.64-.21-22,0-1.72.52-2.74,2.5-2.93,12.81-1.27,23.34-7.92,33.7-14.72a35.78,35.78,0,0,1,13.1-5.32c5.54-1.07,11-2.52,15.08-6.86a1.08,1.08,0,0,1,.37-.34c11.15-4.41,19.52-13.18,29.79-18.94,4-2.27,5.89-5.31,6.47-9.8a112.41,112.41,0,0,0,1-15.87c0-1-.09-2.22.44-2.9,4.74-6.12,3.43-13.26,3.5-20.14.07-5.83,1.19-11.52,2.28-17.17.92-4.79,5.05-6.78,9.29-6.71,7,.13,12.36-3,17.42-7.22s10.14-8,14.8-12.42A59.26,59.26,0,0,0,536.7,3.54a51.31,51.31,0,0,1,18.78-20.87c9.21-5.57,13.13-13.32,15.3-23,1.45-6.46,1.62-6.38,7.9-4.58a320.64,320.64,0,0,0,49.86,10c9,1.07,16.47,4.54,22.22,12.1,3.52,4.63,8.56,8.11,12.84,12.19,7.91,7.54,12.52,17,14.93,27.46.92,4-1.13,7.83-2.12,11.6a89.27,89.27,0,0,1-14.06,30.23C655,68.93,649.6,80.43,650.59,94.15c.95,13.18-.7,26.54,3.18,39.51,3,10.17,7.38,19.74,15.84,26.36,4,3.16,9,5.42,13.73,7.73,7.73,3.79,14.82,8.64,22.37,12.69,10.79,5.78,22.3,9.66,34.52,9.45,13.58-.24,26.09,3.49,38.64,7.72A46.59,46.59,0,0,0,794,200.06a7.43,7.43,0,0,1,4.33.83c8.88,5.79,18,10.6,21.12,22.63,2,7.75,8.09,14.31,11.48,21.89a2.79,2.79,0,0,0,2.38,1.57c2.79.31,5.56.84,8.35,1,9.29.61,9.09.47,5,9.27-6.24,13.54-15.58,24.84-25.53,35.63-4.48,4.87-11.07,7-16.88,10-19,9.82-39.62,16-59,25.09-18,8.48-36.33,16.48-53.68,26.26-11.42,6.44-21.2,15.13-27.3,27.36a21.19,21.19,0,0,1-9.8,9.54,45.41,45.41,0,0,0-8,5,9.41,9.41,0,0,0-3.74,8.68c.3,3.35,3.22,4.42,5.19,4.51,7.61.33,13.34,4.71,19.58,8.06,3.45,1.86,8.47,3.35,8.6,7.28s-4.95,5.65-8.27,7.71c-12,7.4-25.57,11.44-37.6,18.7a15.82,15.82,0,0,1-8.61,1.9C614,453,606.33,453,598.67,453Z" transform="translate(313.77 283.96)"/><path id="b13" d="M883.63,248.05c8-.63,17.66,1,27.25-.93a50.33,50.33,0,0,0,12.57-4.54c15.69-7.76,32.32-11.62,49.7-12.53,18.17-1,36-3.68,51.74-13.41,9.92-6.13,20.38-7.85,31.73-7.72,9.77.12,19.62,1.25,29.34-.83,1.76-.38,3.39-1.51,5.14-1.67,1.58-.15,5.45-2.58,3.67,2.57-.5,1.46.64,2.53,1.65,3.39a24.26,24.26,0,0,1,7.35,11,15.11,15.11,0,0,0,7.15,8.62c5.38,3,8,8.81,13,12.56,6,4.48,12.73,8.52,17.31,14.72,6.73,9.11,16.36,14.69,25.25,21.15a73.74,73.74,0,0,0,13.9,8.41c9,3.9,13.63,11.25,17.15,19.75.38.91.6,2.07,1.29,2.63,7.76,6.33,12.33,15.19,18.32,22.92,3.52,4.55,6.79,9.34,10.66,13.58,2.58,2.83,3.18,6.47,4.86,9.61,3.6,6.7,6.71,13.69,10.17,20.5a18,18,0,0,1,1.41,8.54c-.83,12.08,4.5,23.32,4.31,35.29-.06,3.71,3.94,5.39,5.58,8.39,1.2,2.19,1.33,3.31-.62,5-6.4,5.65-11.62,12.35-16.47,19.35a4.64,4.64,0,0,1-1.91,1.47c-6.18,2.77-11.23,7.28-16.3,11.5-5.85,4.88-12.4,8.65-18.38,13.24-2.65,2-5.58,3.89-7.93,6.1-5.08,4.76-11,8.08-16.72,11.8a195,195,0,0,1-23.95,13.17,211.67,211.67,0,0,1-22.73,9.44c-7.41,2.43-14.84,5.09-22.07,7.84-11.39,4.32-23.57,5.11-34.85,9.18-6.87,2.49-13.68,1.71-20.52,1.75-25.48.16-51,.24-76.44,0-11.37-.11-22.44.7-33.43,4-11.89,3.5-24.19,5.68-35.84,10-6.53,2.43-13.65,4.46-18.93,8.66-5.09,4-10.54,8-14.76,13.37-3.55,4.48-9.08,6.87-13.9,9.9-1.77,1.12-3.24,2-3.93,4.11a4.48,4.48,0,0,1-2.07,2.67c-5.21,1.88-7.28,7.38-11.81,10-.86.49-1.62,1.45-2.5,1.56a21.88,21.88,0,0,0-13.53,7.42c-1,1.05-2.11.59-3.25.54-1.65-.08-3.55-.55-4.84.65-4.72,4.4-10.5,3.14-16,3.25a50.72,50.72,0,0,1-8,0c-9.06-1.26-16.82,2.13-24.78,5.81-4.24,2-8.86,3.37-13.17,5.32-4.88,2.19-9.91,3.89-12.6,9.63-1.36,2.91-4.69,5.07-6.58,8.2a10,10,0,0,0-1.6,5.49,17,17,0,0,1-6.87,13.76A84.07,84.07,0,0,0,713.77,677c-1.07,1.31-2,2.09-3.74,1.57-21.61-6.43-44.14-8.48-66-13.72a77,77,0,0,1-18-7c-4.85-2.58-7.83-7.69-10-12.56-3.64-8.22-6.9-16.27-15.29-21.16a20,20,0,0,1-8.46-9.62c-1.53-3.9-4.37-5.8-7.8-7.09-7.12-2.68-14.41-4.86-21.36-8-1.85-.83-4.38-.06-6.39-.68-9.87-3.06-20-5.18-29.63-9.07-3-1.22-6.21-.83-9.29-1.34-9.87-1.61-19.68-3.24-29.33-6-3.71-1.06-7.95-.3-11.94-.29-2.22,0-3.47-.37-4.92-2.78-3.59-6-7-12.15-13.62-15.9-5.75-3.27-9.21-9.5-11.75-15-4.39-9.52-9.22-18.58-15.5-26.92a9.38,9.38,0,0,1-1.88-6.56c.48-6.63-.23-13.13-3.1-19.17-.73-1.56-.08-1.5.82-2,1.41-.77,2.91-.63,4.39-.64,5.83,0,11.7-.43,17.48.08,12.44,1.1,23.59-3.07,34.34-8.23,9-4.3,18.52-6.28,28-8.51,13.44-3.17,26.16-8.19,38.86-13.33a81.36,81.36,0,0,1,28-5.92c11.81-.38,23.65-.41,35.46,0,9.66.34,18.8-.37,26.94-6.27,5.39-3.91,11.75-6.09,17.83-8.53,8.3-3.35,15.12-8.83,22.46-13.6,3.2-2.08,1.95-4.5.53-6.8a10.88,10.88,0,0,0-3-3.19c-7.67-5.2-15.08-11-24.51-12.69-2.51-.46-5.62-.9-6.08-3.37-.49-2.64,2.55-3.55,4.67-4.93a56.74,56.74,0,0,0,17.77-17.48,72,72,0,0,1,33.6-27.92c13-5.41,25.08-12.66,38-18.27,9.22-4,18.42-8.12,27.75-11.86,17-6.81,34.31-12.9,50.07-22.45A12.11,12.11,0,0,0,821,298.2c14.35-13.45,26.12-28.69,32.5-47.54.94-2.77,2.58-2.59,4.52-2.59C866,248,874,248.05,883.63,248.05Z" transform="translate(313.77 283.96)"/><path id="b12" d="M1101.55-91c0,6,.33,12-.08,18-.64,9.46,3,18,4.63,27,1.4,7.63,7.24,12.85,8.68,20,1.1,5.44,2.88,11.38-2.42,16.26-1.23,1.13-1.1,3.69-1.71,5.55a56.28,56.28,0,0,0-.27,35.82c2.27,7.18,5.22,14.12,7.59,21.24,2.08,6.24,6.75,11.6,10.18,17.41,7,11.77,13,23.62,13.66,38,.61,12.48.4,24.93.69,37.38.14,6.06-1.48,10.72-8.25,13-4,1.36-7.22,5.15-11.06,7.4-7.59,4.45-12.56,11.15-16.55,18.67-2,3.67-2.16,8.2-5.48,11.25-.47.44-.63,1.45-1.12,1.59-8.27,2.44-15.09,8.79-24.75,7.77-8.57-.9-17.31.06-26-.25-9-.33-17.07,2.49-24.62,6.67-14.37,8-29.21,13.09-46,13.63a144.73,144.73,0,0,0-62,15.66,32.26,32.26,0,0,1-14.94,3.1c-18.32,0-36.65-.09-55,.07-3.7,0-7.22-1-10.85-1.08-1.93-.06-2.61-1.39-3.15-2.72-3.16-7.8-7.93-14.75-11.22-22.58-5.38-12.8-15.8-20.31-30.05-21.71-9.64-.95-18.45-5-27.71-7.42a73.34,73.34,0,0,0-19.12-2.6c-17.26.14-32.59-5.59-46.88-15.1-7.26-4.83-15.2-8.68-23-12.64a20.37,20.37,0,0,1-7.16-5.82c-9.09-11.75-12.45-25.38-12.87-39.91-.17-5.83.48-11.72-.13-17.48-1.46-13.93,4.72-25.2,12.42-35.62,6.36-8.62,9.33-18.39,13-28.16,6.57-17.71-1.38-30.95-12.29-43.07-7.39-8.21-16-15.33-24.22-22.77-3.92-3.55-9.24-3.55-14-4.2a404.37,404.37,0,0,1-50.46-10.19c-5.55-1.5-11.18-2.52-16-6.17-3.94-3-8.73-1.9-12.92-.54s-7.46,0-10.67-2.18c-4.65-3.21-9.31-6.46-14.58-8.47-4.73-1.81-6.43-5.41-7-9.91a64.15,64.15,0,0,0-8.33-24c-5.78-10.27-8.94-21.65-5.22-33.84a30.44,30.44,0,0,0,1.4-10.78c-1.17-16.18,3.61-31.5,6.36-47.1a22.48,22.48,0,0,0,.71-6.38c-1.06-9.13,3.41-15.88,9.16-22.18,5.36-5.88,10.56-11.9,15.89-17.8a41.17,41.17,0,0,1,9.33-8.19,65.72,65.72,0,0,0,13.62-10.75c4.67-4.8,11.18-5.48,17.32-6.4,8.57-1.29,16.09-5,23.28-9.37,10.15-6.2,21.17-8.83,32.88-10,9.3-.9,18.58-.57,27.87-.91,9.82-.37,19,2.45,28.13,5.38,7.6,2.43,10.87,9.26,13.72,15.61,6.12,13.65,16.27,24,26,34.89,5.08,5.67,12.72,7.77,17.73,13.54,3.82,4.4,7.51,8.7,9.49,14.37,2,5.87,3.46,6.24,9.33,3.86,12.39-5,24.75-10.14,37.18-15A33.91,33.91,0,0,1,814.25-214c3.58-.22,7.47-.57,10.52-2.54,9.05-5.83,18.72-4.66,28.41-2.94a48.83,48.83,0,0,0,15.86.19,9.18,9.18,0,0,1,6.15.88c6.68,3.93,13.75,7.4,18.89,13.49a11.86,11.86,0,0,0,8.21,4.07c6.15.69,10.15,5,10.32,11.27.14,5.66.37,11.35,0,17-.72,10.17,4.68,16.91,12,22.65,3.25,2.54,7,4.42,10,7.33,2.36,2.27,5.72,2.09,8.62,3,13.63,4.38,27.94,4.93,41.79,8.1,16.66,3.81,33,9.23,50,11.23a78.51,78.51,0,0,0,9,.36c11.66,0,23.32,0,35,0,5.17,0,10.14-.27,15.11-2.15,6.31-2.38,7.49-1.31,7.49,5.48Q1101.57-103.79,1101.55-91Z" transform="translate(313.77 283.96)"/><path id="b11" d="M1100.45,205.6a38,38,0,0,0,8.28-13.89c2.24-6.45,5.32-12.6,10.7-16.86,5.79-4.58,11.32-10.09,18.31-12.47,6.55-2.22,8.35-7.3,8.54-12.33.66-16.93,1.14-34-1-50.8-1.57-12.29-6.94-23.44-14.73-33.34a48,48,0,0,1-6.71-11.41c-4-9.67-8.68-19.13-10.43-29.56-1.62-9.72-2.1-19.54,2.46-28.61,3.61-7.17,3.85-14.57,3.73-22.26-.08-5.23-4.2-8.4-5.66-12.9-3.32-10.23-7.86-20-7.53-31.27.51-17,.24-34,0-51,0-3.69,1.19-5.46,4.71-6.16,5.49-1.1,10.94-2.4,16.39-3.67,5.77-1.35,11.21-3.05,16.15-6.87,6.07-4.69,14-5.57,21.15-8,9.93-3.37,19.62-7.65,27.25-14.65,7.44-6.82,16.32-10.09,24.88-14.59,10.87-5.7,23.4-7.24,33.53-14.69,4-2.93,9.08-4.68,13.93-6.07,10.43-3,18.58-10.66,29-13.64,9.79-2.8,20-4.31,29.23-9,3.3-1.67,6.75,1,10.22.83.62,0,1.28.6,1.89.56,22.74-1.6,41.27,11.08,61.52,18,7.26,2.48,12.93,7,18.85,11.51,14.51,11,30.82,18.12,48.39,22.51a32.23,32.23,0,0,1,16.85,10.41,38.87,38.87,0,0,0,14.26,9.7c13.57,5.66,26,12.87,36.6,23.22a20.94,20.94,0,0,0,16.36,5.86c9.15-.55,18.16-.17,26,5.87,2.26,1.75,5.52,2.15,8.55,2,13.65-.52,26.93,2.79,40.42,3.76,10.27.74,20.64.29,31,.24a117,117,0,0,1,27.54,3,15.79,15.79,0,0,1,7.76,4.13,30.89,30.89,0,0,0,14.59,8c7.5,1.92,12.82,6,14.55,14.29,3.31,15.77,7.13,31.43,11.78,46.89,3.35,11.17,6.66,22.43,8.84,33.88,2,10.57,5.77,20.59,8.14,31,.59,2.55.27,5.3.67,7.91a25.23,25.23,0,0,0,9,15.85c8.87,7.67,17.22,16,25.41,24.37,4.22,4.32,4.65,10.42,5.35,16.17.18,1.48-.1,3,.06,4.49.58,5.53-2,7.94-6.9,10.87-13.9,8.36-30,8.51-44.68,13.76-2.38.86-5.28.46-7.93.37-11.31-.41-22.41,1.38-33.53,3-4.51.67-8.14,3.65-12.4,4.94-13.88,4.2-26.92,10.59-40.45,15.69a14,14,0,0,0-8.83,10.11c-.69,3.15-2.5,4.25-5.35,4.8-13,2.51-25.94,4.93-39.19,5.6-3.75.19-7.31,2.06-10.54,4-10,6-21.32,8.65-31.83,13.37a56.09,56.09,0,0,1-23.2,4.45c-14.77-.12-29.44,3.63-44.16,1.81-6.64-.82-12.88,1-19.45.63-7.69-.47-15-2.42-22.48-3.5-8.76-1.26-17.88-.56-26.13-4.82a47.5,47.5,0,0,0-19.4-5.32c-3.49-.19-6.16-2.9-8.62-5.49-12.22-12.83-27.24-21.35-43.57-27.63-9.49-3.65-18.91-1.59-28,1.83-13,4.86-23.62,13.88-35.91,19.94-6.65,3.27-13.63,5.87-20.24,9.21-10.29,5.2-20.42,10.66-31.73,13.48a330.91,330.91,0,0,1-40.24,7.84C1155.56,208.23,1128.68,203,1100.45,205.6Z" transform="translate(313.77 283.96)"/><path id="b10" d="M1629.51,174.21c-3.23,13.66,1.12,27.24-.26,40.78a42.18,42.18,0,0,0,8.34,30.36c3.84,5.27,5.89,11.85,8.73,17.84,1.17,2.46,2.63,4.64,5.14,5.91a28.57,28.57,0,0,1,11.25,10.41c5.06,8.18,12.23,13.64,19.71,19.3,10.76,8.14,22.62,12.18,35.79,13.13,4.45.32,8.31,2.27,12.13,4.23,9.13,4.68,18.26,9.28,27.68,13.42,6.8,3,13.71,5.75,20.56,8.61,7.27,3,12.28,9,18.06,13.94,3.33,2.84,6.42,5.8,10.89,6.54,5.47.9,8.24,5.23,11.55,8.88,1,1.12.92,2.34.51,3.73-.85,2.85-1.19,5.9-2.33,8.63-7.1,17.13-4.74,34.65-1.69,52,1.23,6.93,6.4,12.66,9.37,19.18,5.12,11.2,8.24,23.11,13.15,34.36,1.43,3.28,2.84,6.12,6.34,7.86,4,2,7,5.41,9.91,8.92,11.68,14.07,25.86,23.64,44.81,24.91a145.35,145.35,0,0,1,26,3.91c2.41.61,5.32.83,7,2.33,7.28,6.35,15.89,6.06,24.55,5.58,4.39-.24,5.78,1.13,4.32,5.46-.89,2.64-1.1,5.51-1.76,8.25-1.62,6.62-3.57,12.71-9.34,17.58-5.37,4.52-7.76,11.71-8.63,18.66a47.33,47.33,0,0,1-6.41,18.19,82.2,82.2,0,0,0-10.84,31.8,10.17,10.17,0,0,1-.76,3.37c-9.37,18.24-21,34.7-38.44,46.13-2.9,1.9-6.09,5-8.68-1.87-1.78-4.7-7.92-7.11-12.17-10.49-6.45-5.13-14-7.14-21.74-9.2a79,79,0,0,1-17.57-7c-4.78-2.6-11.13-1.44-15.13-5.62-5.13-5.36-13.08-8.82-12.62-18.24a10.51,10.51,0,0,0-2-6.06,20.15,20.15,0,0,1-3.87-13.59c.13-2,0-3.89-3.17-3.74-11.94.58-23.23-1.38-34-7.34-11.61-6.45-25-7.56-37.76-10.17-9.78-2-19.64-3.91-28.79-7.75-8.9-3.73-15.11-11.11-20.6-19-8.88-12.78-19.12-24.43-32.57-32.46-6.45-3.86-13.07-6.9-17.07-13.79-1.92-3.31-3.34-6.48-2.88-10.29,1-8.31-2-15.26-6.93-21.74-1.57-2.09-3.26-3.12-5.83-3s-5.33-.13-8,0c-9.92.64-19.37-2.17-28.29-5.54-4.4-1.66-8.56-6.22-11-11.15-.67-1.35-1-2.78-2.77-3.22-5.21-1.33-8.38-5.43-12.16-8.79-3-2.63-6.11-5.34-10.57-5.33-13.82,0-27.65,0-41.47,0-5.5,0-10.52,2.29-15.08,4.77-5.29,2.88-10.8,1.62-14.65-.33-12.52-6.34-25.66-3.33-38.49-4.66-9.69-1-19.75-1.52-28-8.29-4.17-3.42-10.25-3.21-14.73-6.45-5.44-3.95-11.68-3.12-17.93-3.27-4.63-.12-9.36-1.64-13.77-3.28-6.45-2.39-13.09-5.11-19.59-6.19-13.65-2.26-27.8-3.75-41.14,2-3.91,1.68-7.2,4-11.86,3.84-7.9-.21-14-3.22-18.6-9.46a4.29,4.29,0,0,1-.84-2.25c-.16-8.09-2.83-15.91-2.9-23.91-.08-9.57-1.46-18.42-6.13-27-5.09-9.35-8.68-19.76-15.48-27.91-6.17-7.39-11.54-15.31-17.37-22.91-5.63-7.34-11.22-14.72-15.25-23.21-1.84-3.89-6.13-6.33-9.93-8.25s-7.68-3.62-11-6.52c-2.93-2.54-6.81-3.78-10.12-6-5.23-3.53-9.31-8.45-14.8-11.53-2.77-1.56-3-4.83-5.66-6.92-7.38-5.86-15.73-11-21.73-18-5.71-6.68-15.11-10.67-16.73-20.89-.36-2.25-3.13-4.12-4.82-6.21,1.29-1.81,3.1-1.05,4.6-1.06,12.33-.07,24.66-.11,37,0,3.8,0,7.59.69,11.4.94,20.27,1.33,40-2.09,59.73-6.37a140.12,140.12,0,0,0,39.93-14.86c9.8-5.56,20.92-8.51,30.51-14.6,8-5.08,16.12-9.9,24.6-14.17,14.36-7.23,28.15-6.32,41.65,2.08,3.53,2.2,7,4.47,10.66,6.45a62.38,62.38,0,0,1,17.88,14.09,20.84,20.84,0,0,0,15.06,7.64c8,.56,15.07,4.94,22.65,7.35a21.67,21.67,0,0,0,7.76,1.4c6.55-.35,12.87,1,19.2,2.42a83.1,83.1,0,0,0,25.09,1.81c8.28-.68,16.72.49,25-.37,16.31-1.7,32.84-.85,49-4.75,6.89-1.67,12.64-5.85,19.35-7.76,7.71-2.2,14.86-5.65,21.91-9.38,4.53-2.4,9.68-2.82,14.54-2.78,8.12.07,15.86-1.47,23.58-3.49A21.44,21.44,0,0,1,1629.51,174.21Z" transform="translate(313.77 283.96)"/><path id="b9" d="M1786.28,842.08c-8.93,9.67-20,16.21-32.15,20.66-8.71,3.18-16.91,7.4-25.27,11.27-5.84,2.7-11.57,4.26-17.66,1.89-2.32-.9-4.21.11-6.3.1-23.75-.17-47.42-2.48-71.2-2.35-5.66,0-11.26-2.62-16.8-5.75-8.59-4.87-16.34-12-26.89-13.22-3.26-.37-6.28-1.92-9.24-3.48-10.26-5.4-21.18-7.85-32.82-8.45-8.18-.42-16.28-2.63-24.36-4.26a30.61,30.61,0,0,0-5.93-.52c-14.33,0-28.65,0-43,0-4,0-6.93-.63-9-5.55a118.16,118.16,0,0,0-18.37-29.92c-2.64-3.13-5.74-5.55-8.4-8.51-.44-.5-1.18-.86-1.37-1.43-3.5-10.42-13-17.08-16.86-27.43-2.32-6.2-4.81-12.78-10.09-17.47-1.86-1.65-1-4.06-1.86-6.06a85.31,85.31,0,0,0-16.65-25.78,24.76,24.76,0,0,0-17-7.79q-6-.09-12,0c-2.47,0-3.51-.26-2.6-3.38,2.71-9.22,6.94-16.8,14.69-23.31a83.32,83.32,0,0,0,26.64-39.92c.91-3,.64-6,.6-8.91-.18-13,0-26,3.24-38.53,4.6-17.7,15.19-31,32.79-37.8a65.66,65.66,0,0,0,10.3-4.81c2.21-1.32,5.58-1.82,5.48-5.07-.1-3.61-2.34-6.33-5.29-8.48-4.07-3-9-4-13.32-6.41-6-3.37-10-9-13.42-15a45.09,45.09,0,0,1-2.69-5.33c-1.9-4.67-1.73-9,2.17-12.78,9.4-9.09,20.7-15.32,32.13-21.31a33.69,33.69,0,0,0,11.57-9.94,8,8,0,0,1,3.18-3c7.26-3,14-7.23,22.37-7,9.82.25,19.67.44,29.47-.07,7-.37,11.74,3.13,17.32,6.47,8.25,4.95,14.15,12.35,20.84,18.65,5.85,5.52,12.57,5.48,18.86,7.87,6.77,2.59,14.09,1,21.16,1a7.51,7.51,0,0,1,7.19,4.05,31.55,31.55,0,0,1,4.66,18.49c-.36,7.3,8.07,19.58,14.84,22.45,13.32,5.63,23.72,14.82,32.15,26.38,7.11,9.76,14.1,19.61,24.28,26.54a24.37,24.37,0,0,0,5.66,3c12.24,4.11,24.93,6.42,37.5,9.22,9.92,2.21,20.24,3.19,29.21,8.8,8.71,5.45,18.67,6.43,28.6,7,3.34.2,5.05,1,4.59,4.54a8.75,8.75,0,0,0,1.91,6.47c3.57,5,3.43,11.16,5.05,16.77.28,1-.05,2.48.5,2.87,7.17,5,11.82,13.85,21.87,14.42a9.57,9.57,0,0,1,4.33.89c8.31,4.64,17.27,7.48,26.48,9.76,8.08,2,14,7.78,20.48,12.47,2.66,1.91,2.07,5.94,5.34,7.5.7.33-.14,2.27-1.17,2.85-3.14,1.79-5.71,4.33-9.11,5.89-4.61,2.12-9.32,4.47-12.85,8.34s-7.76,5-12.44,5.25c-6.12.35-12.24,0-18.38.9-4,.61-7.4,1.81-10.06,4.73-5.1,5.61-11.46,8-18.93,8.52-8.1.57-13.52,6.48-19.52,11-4.48,3.39-8.71,7.18-13.85,9.53-4.44,2-7.53,5.07-7.87,10-.88,12.7-6,24.71-5.84,37.6.06,3.38.74,5.75,4.22,6.89a7.87,7.87,0,0,1,4.44,3.74c1.17,2,3.17,3.83,5.52,3.92,4.59.18,6.46,3.3,8.63,6.53a46.38,46.38,0,0,0,10.87,11.16c3.4,2.58,9,5.14,8.38,11.37Z" transform="translate(313.77 283.96)"/><path id="b8" d="M1071.59,1091.36c-.41-3,1.05-4,2.17-5.21,6-6.37,12.2-12.58,18-19.12,5.33-6,13.06-8.5,18.86-13.68a295.17,295.17,0,0,0,27.88-28.26,132.12,132.12,0,0,0,22.35-37.92c4.07-10.33,11.91-18.32,17.88-27.46a25,25,0,0,0,4.49-13.4c.1-22,12.59-36.49,28.23-49.46,12.23-10.15,25.7-18.83,36.77-30.33a363.9,363.9,0,0,0,28-33.55c6.38-8.46,14.81-15.43,19.5-25,2.86-5.86,7.69-8.75,12.46-12.44,6.92-5.35,11.08-13.27,15.75-20.63,3.9-6.15,3.8-13.15,5.65-19.71,2-7.27,3.16-14.87,6.55-21.74a24.94,24.94,0,0,0,2.44-7.52,9.77,9.77,0,0,1,5.63-7.6c13.84-7.24,27.77-9.95,42-1.36a24.55,24.55,0,0,1,10.08,12.31c1,2.78,3.26,4.4,4.52,6.93,4.4,8.89,8.35,18,14.07,26.27,3.49,5.06,4,12.11,8.69,16.59,6,5.69,7.35,14.4,13.7,19.78,11.15,9.47,17.58,22.28,24.31,34.87,1.68,3.15.32,4.93-2.53,6.3-5,2.43-10.54,3.83-15,7.59a152.73,152.73,0,0,0-24.44,25.3c-4.65,6.22-8.68,12.93-12.76,19.55a30.1,30.1,0,0,0-3.66,8.67c-1.76,7.08-6,12.89-10.7,18.31-6.07,7-12.51,13.69-17,22-3.1,5.7-2.5,9.06,2.93,12.5,5.15,3.27,11,4,16.71,3.9,11.63-.26,22.78,1.13,33.5,5.94a24.31,24.31,0,0,0,12.16,2.13c12.44-1.21,22.52,5,32.45,10.8,5.54,3.25,10.73,7.18,16.59,10,13.29,6.35,20.53,17.45,24.82,31.07a64.86,64.86,0,0,0,5.32,11.25c8.25,15.08,5.08,17.71-4.07,28-3.88,4.34-8.17,8.31-12.33,12.39-1.86,1.82-1.78,3.49-1.34,6.15,1.88,11.32,10.91,13,19.48,15.29,7.19,2,11.29,7.49,11.79,14.88.87,12.88-3,23.58-12,33-5.35,5.67-9.76,12.25-16.45,16.54-4.34,2.79-8.43,2.18-11-2.31-1.89-3.26-4.27-3.37-7-2.77-9.48,2.08-18.81.22-28.17-.81-13.28-1.47-26.4-2.43-38.61,5-3.33,2-7.43,2.78-11.13,4.25-2.34.93-3.91-.87-5.48-1.69-11.54-6-24.25-8.64-36.42-12.81-5.75-2-10.06-6.27-15.22-9.22-10.68-6.12-21.57-11.72-33.37-15.19a140.1,140.1,0,0,0-34.17-5.8c-23.71-.94-47.42-.69-71.12-1-4.75-.06-9.49-1.36-14.21-2.23a5.21,5.21,0,0,1-3.08-1.53c-4.76-6.66-12.62-8-19.29-11.27-7.37-3.65-11.39-9.85-14.24-17.18-4.61-11.85-6.8-13-21.15-11-5.06.7-10,2.9-15.15,2.45-9.68-.85-17,4.15-24.45,8.89-4.83,3.11-10.48,2.75-15.54,4.8C1081.54,1087.68,1076.27,1088,1071.59,1091.36Z" transform="translate(313.77 283.96)"/><path id="b7" d="M929,1217c8.54,2.19,17.42-3.28,26.9-5.76a3.66,3.66,0,0,0,1.35-.64c11.18-9.3,25.14-14.69,35.19-25.73,5.33-5.85,12.74-9.39,19.5-13.54,13.61-8.33,23.38-20.36,32.17-33.34,5-7.45,8.78-15.56,12.42-23.74,6.9-15.53,19.5-23,35.83-25.3a37.24,37.24,0,0,0,14.61-5.71c5.13-3.18,10.5-5.78,16.82-6.42,8.19-.82,16.27-2.65,24.44-3.8,4.55-.64,7.59,1.65,9.3,5.86,1.3,3.21,2.57,6.44,4.06,9.57,4.79,10,14.29,13.78,23.75,17.38a8.36,8.36,0,0,1,4.39,3c2.46,3.81,6.25,5.16,10.31,6.15a84.21,84.21,0,0,0,22.72,2c22.46-.77,44.93.22,67.32,1.32,16.8.83,32.91,6,48.25,13.69,10.53,5.26,19.43,13.37,30.67,17.11,9.54,3.16,19.5,5.07,28.51,9.77a17.94,17.94,0,0,0,2.66,1.26c2.88,1,3.92,1.52,2,5.28-2.14,4.2-1.93,9.61-2.73,14.49-.05.33,0,.68,0,1-2.93,17.29,4.57,31.3,14.29,44.47,3.12,4.22,3.23,7.49-.42,11.36-9,9.62-16.71,20.59-28.33,27.66-2.52,1.54-5.2,3.17-4.35,8.45,1.06,6.65-1,14-4.75,20.31s-10.9,7.71-16.25,11.69c-11.6,8.63-25.89,8.28-39,11.84-7.86,2.13-14.89,6.51-23,7.68-9.47,1.36-18.78,3.7-28.49,3.7-7.77,0-15.28,2-22.65,4.78-16.81,6.27-33.32,14-52,13.13-.82,0-1.94-.14-2.43.31-6.08,5.73-13.2,3.72-20.07,2.6-10.1-1.64-20.31,0-30.35-1.09-15.25-1.68-30.8-.57-45.82-4.74a62,62,0,0,1-7.79-3.18c-7.66-3.31-15.84-3.25-23.87-3.83-6.79-.49-13.65-.12-20.48-.1-4,0-8,.52-10.56-3.77-1-1.63-3-1.38-4.61-1.19-15.34,1.76-29.09-3.24-42.48-9.83-3.32-1.64-7-1.92-10.52-2.73a64.68,64.68,0,0,1-19.45-7.78c-8.39-5.17-17.87-6.66-27.44-7.66-6.8-.71-13.35-2-19.12-6-6.93-4.82-15.49-5.5-23-8.83-5.37-2.38-10.52-4.9-14.48-9.34-3.3-3.7-7.94-5.3-12.07-7.67-5.2-3-7-10.41-2.44-14.15,6.9-5.66,12.41-12.7,19.39-18.31,4.65-3.73,7.5-9.44,12.55-13.11,6.43-4.67,12.94-7.89,21.29-7.81C916.12,1217.72,921.61,1216.84,929,1217Z" transform="translate(313.77 283.96)"/><path id="b6" d="M679.35,1066.89c4.37.26,9.84.27,15.32.66,7.56.53,15.23-.49,22.86-.89a3.83,3.83,0,0,0,1.84-.71c9.58-6.65,20.73-6.68,31.6-7a122.7,122.7,0,0,0,39.27-7.78c5.92-2.15,12-3.77,18.16-5.34,4.17-1.07,6.24-3.56,7.7-7.55,2.49-6.78,2.75-14.66,8.38-20,10.3-9.78,12.92-23.35,18-35.67,3.69-8.88,6.37-18.21,10.49-26.87,5.37-11.27,14.73-19.52,23.5-28.13,12.67-12.46,24.22-25.59,24.88-44.72a32.76,32.76,0,0,1,1.79-9.29,22.78,22.78,0,0,0,.73-12.28c-1.16-5.42.29-7.05,5.72-6.65a8.67,8.67,0,0,0,6-1.94c5.73-4.4,12.53-5.76,19.27-5.69a159.53,159.53,0,0,0,54.78-8.87c6.53-2.28,13.78-2.29,20.24-5.07a81.52,81.52,0,0,0,37.67-32c7.48-11.76,16.52-22.59,27.59-31.17a158.47,158.47,0,0,1,25.18-16c7.67-3.92,16-5.08,24.48-6.15,11.69-1.48,23.27-3.16,35.16-3.12,13,0,25.74,2.68,38.64,3.68,9.39.73,18.85,1.21,28.22,2.49,20.68,2.82,40.51-2.85,60.56-6.24a26,26,0,0,0,10-4.43,99.68,99.68,0,0,1,32.45-14.62c1.08-.26,2.29-1.39,3.15-.2a3.89,3.89,0,0,1,.46,3.8c-.26.6-.7,1.13-1,1.74-4.42,10-6.7,20.49-8.37,31.31-1.19,7.81-6.19,14.47-11,20.86-3.72,5-8.58,8.59-13.39,12.34a17.74,17.74,0,0,0-5.82,7.8c-2.19,5.56-6.07,10.36-10.13,14.7-8.08,8.64-14.6,18.49-22.11,27.55-9.71,11.74-19.76,23.11-32,32.46-10.26,7.84-20.78,15.35-30.19,24.32-10.73,10.24-18.79,21.91-19.42,37-.49,11.78-6,20.9-12.69,29.59a100,100,0,0,0-14.08,25.65c-4.69,12.38-13.08,22.27-21.24,32.3-6.91,8.5-15.38,15.49-23.16,23.13a27.89,27.89,0,0,1-5.75,3.88c-11,6.39-18.58,16.39-27.45,25.1-10.3,10.12-16.52,22.79-23.23,35-7,12.67-13.06,25.72-22.69,36.75-6.17,7.07-12.93,13.58-21.08,18-11.95,6.53-21.84,15.49-31.79,24.48-2.39,2.15-4.48,4.26-8.28,3.22a5.48,5.48,0,0,0-5.75,2.23c-3.75,5.29-9,7.82-14.86,10.51-8.32,3.82-16.62,3.68-25.19,3.9-7.3.19-14.72,0-21.85,1.23-7.81,1.39-14.16,6.38-19.71,11.91-9.35,9.32-18.24,19.07-28,28-3.57,3.28-6.07,3.34-10.1,3-6.37-.56-12.56.49-17.59,5.24-3.1,2.93-7.32,4-11.24,5.12-10.2,2.91-19.7,8.06-30,10.26a120.34,120.34,0,0,1-39.64,1.44c-6.26-.75-12.57-1-18.83-1.73-13-1.55-23.53-8.72-33.84-16a65,65,0,0,0-18-9.34c-8.42-2.65-15.1-7.32-18.79-15.84a39,39,0,0,0-7.64-11,21,21,0,0,1-6-15.35c.24-15.23-.21-30.42-2.67-45.54-1-6.27,2.27-12,4.85-17.56a78.94,78.94,0,0,0,7.74-36.69c-.5-13.34,2.94-25.58,7.73-37.73,1.53-3.86,4.06-5.47,7.94-5.51C670.93,1066.87,674.59,1066.89,679.35,1066.89Z" transform="translate(313.77 283.96)"/><path id="b5" d="M797.15,620c3.16,0,5.66,0,8.15,0a41.08,41.08,0,0,0,24.94-7.57c5.08-3.63,11.5-4.8,16.75-8.32a14.51,14.51,0,0,0,3.3-2.64c3.56-4.14,6.84-9.09,11.39-11.68,7.89-4.49,13.93-10.93,20.71-16.59,5.52-4.61,10.82-9,17.79-12.05,17.12-7.55,35.38-10.46,53.07-15.56A45.47,45.47,0,0,1,966.07,544c30,.06,60-.31,89.93.22,10.16.18,19.77-1.67,29.24-4.41,8.69-2.51,17.48-4.79,26.12-7.56,11-3.54,21.53-8.29,32.37-12.19,7.85-2.82,15.31-7,22.93-10.54,10-4.7,18.46-11.38,27.26-17.89,9.14-6.75,17.53-14.77,27.36-20.27,13.43-7.51,23.49-18.25,33.25-29.57,2-2.35,5.31-3.54,6.27-6.93.27-1,1.39-.39,2.19-.27,9.79,1.5,19.19.7,27.75-4.86a8.93,8.93,0,0,1,5.16-1.65c10.09.25,20.43-1.54,30.15,2.15,8.45,3.22,17.33,4.85,25.82,7.85a10.6,10.6,0,0,0,5.34.91c8.18-1.46,14.79,3.12,22,5.37,5.62,1.75,10.37,5,15.43,7.74,7.21,3.9,15.38,3.5,23.13,4.81,4.37.74,9,0,13.47.16,6.66.2,13.54-1.4,19.52,3.62,1.79,1.5,4.92,1.63,7.67,1.71s4.13,1.65,1.78,4.19-4.48,4.93-7.63,6.34c-10.71,4.78-20.1,11.71-29.61,18.41-10,7-11.55,16.27-4.74,26.45,3.58,5.36,6.53,11.2,12.18,15,2.77,1.86,5.29,4,8.63,4.78a15.88,15.88,0,0,1,4.6,1.91c2.07,1.31,4.86,2.47,5,5.19s-2.83,3.48-4.78,4.51c-6.9,3.65-14.67,5.77-20.78,10.79-12.07,9.92-20.37,22.32-22.61,38.06a246.11,246.11,0,0,0-2.18,37.32c.1,8.7-4.27,16-8.89,22.92-6.09,9.14-12.69,17.82-21.87,24.32-6,4.25-8,11.24-10,18-2.54,8.38-8,12.93-16.59,13.77-1.22.12-2.35.19-3.09,1.23-3.35,4.72-8.56,6.36-13.68,7.57a68.26,68.26,0,0,0-23.44,10.71c-11.27,7.83-24.5,8.91-37.41,11.11-4.58.78-9.18,1.52-13.8,2-16.32,1.78-32.46-1-48.6-2.49-19.2-1.82-38.44-5.56-57.63-3.14-15.33,1.94-31.3,1.85-45.6,9.54-20.41,11-37.75,25.31-50.81,44.62-9.14,13.51-19.62,25.59-35,32.39-2.9,1.29-5.74,2.75-8.89,3.2-14.38,2.06-27.68,8.47-42.1,10.32-7.08.91-14.17,1.89-21.35,1.58a47.88,47.88,0,0,0-25.91,5.92c-6.91,3.82-11.75,1.29-14.35-6.18-3.63-10.41-9.54-19.65-16.2-28.35-2.41-3.14-6.74-4-9.72-6.83-9.05-8.66-11.75-20.09-13.36-31.57-1.15-8.19-3.48-16.22-3.63-24.6-.08-4.18-2.93-5.46-7.36-4.45-2.63.6-4.91-.61-7.07-1.89a114.81,114.81,0,0,0-33.32-13,48.77,48.77,0,0,1-16.8-7.4A73.2,73.2,0,0,0,767.7,714a30.12,30.12,0,0,1-15.31-8.8c-9.37-10-19.51-19.09-32.62-24.06-2.68-1-2.42-2.33-.7-4,2.88-2.76,5.68-5.63,8.73-8.19a29.73,29.73,0,0,0,10.54-18.06c1-5.77,5.28-9.81,9.28-13.75,7.32-7.21,18.09-7.78,26.24-13.25C781.43,618.85,789.66,620.23,797.15,620Z" transform="translate(313.77 283.96)"/><path id="b4" d="M205.57,951.7c3.45-5.18,7-10.33,10.34-15.55,5.14-7.89,10.08-15.89,14.74-24.08,6.09-10.71,13.25-20.61,25.53-25.17,2.57-1,4.46-2.9,6.32-4.76,7.16-7.13,16.65-8.33,25.81-10.07,10.28-2,20.13-4.38,29.45-9.71,7.53-4.32,16.46-5.79,25.08-7.32,7-1.25,13.51-3.06,18.42-8.75,1.71-2,4.45-2.6,7-3.4,13.05-4,26.78-3.92,39.95-7,10.12-2.33,19.8-6.41,29.76-9.19,9-2.51,17.35-7.09,26.74-8.23s18.58-2.87,27.92-3.39c8.12-.46,15-2.52,21-8.3A21.11,21.11,0,0,1,528.59,801c10.38,0,19.73-3.67,29.08-7.48a16.74,16.74,0,0,0,6.75-5.79c7.11-9.4,17.33-13.49,28-16.69,6.8-2,13.62-3.71,20-7.06,7.63-4,11.18-11.61,16.89-17.26.45-.45.58-1.47,1.06-1.63,7.72-2.58,4.2-7.2,2.23-11.63-5.22-11.78-8.46-23.93-7.92-37,.4-9.81.1-19.65.08-29.48,0-3.1.57-5,4.3-3.19,10.82,5.28,22.47,7.46,34.27,9.2,14.54,2.14,28.8,5.75,43.19,8.67,17.29,3.52,30.48,13.06,42,25.65,5.29,5.76,11.56,9.8,19.39,11.29a57.66,57.66,0,0,1,23,10.24c7.65,5.51,16.63,7,25.36,9.43,8,2.21,15.38,6.09,22.7,9.94,2.06,1.09,4.08,2.46,6.32,2.68,5,.48,6.48,3.42,7.23,7.87,1.87,11,3.73,22,6.32,32.86,2.44,10.2,7.81,18.65,17.48,23.8a14.91,14.91,0,0,1,6.27,6.15c3.64,6.63,8.31,12.64,11.09,19.81,1.75,4.5,1,7.93-3.33,10.2-6.19,3.25-13.16,3-19.77,4.21a41,41,0,0,0-14.3,5.4c-10.44,6.39-21,12.65-30.93,19.78a75.86,75.86,0,0,0-22.38,25c-7.61,13.65-17.27,25.65-30.67,34.49-4.66,3.08-9.75,5.93-13.52,10.64-4.3,5.39-13.28,6.76-20.15,3.17-13.43-7-27.71-11.4-42.22-15.28a26,26,0,0,0-6.84-1c-23.82,0-47.63-.09-71.45.06-19.08.13-37.3,4.51-54.93,11.75-4.24,1.74-6.61,5.38-9.7,8.21-9.69,8.85-20.52,16.17-31.25,23.57-5.47,3.77-12.39,4.47-18.94,5.3a29.39,29.39,0,0,0-11.94,4.61,106.07,106.07,0,0,1-19.55,9.59c-3,1.13-5.7,2-7.18-1.86-.9-2.36-3.27-1.92-4.87-2.91-6.18-3.8-11.08-9.48-18.11-12.11-3.3-1.23-5-4.52-7.16-7.17-4.07-4.89-8.66-9.36-13.17-13.86-2.17-2.17-5.27-2.81-8.1-3-8.08-.68-16.06-2.54-24.21-2.11-3.25.17-3.88-2.51-5.32-4.42-5.08-6.75-8.36-14.89-15.52-20-3.12-2.23-6.25-3.88-10.33-3.71-5.11.2-10.74,1.72-15.24-.93-8.76-5.16-18-1.78-27-2.92-2.22-.28-3.6,1.33-5.5,1.81-14.82,3.77-29.91,5.53-45,7.52a60.18,60.18,0,0,0-23.82,8.49c-3.44,2.14-7.67,1.24-11.43,2.92-7.48,3.35-16.1,2.58-23.6,6.29Z" transform="translate(313.77 283.96)"/><path id="b3" d="M620.8,687.18c.16,10.24-1,22.11,2.12,33.63a124.65,124.65,0,0,0,6.19,16.6c.7,1.62.7,2.08-.5,3.46-3.24,3.71-6,7.82-9,11.77-5.92,7.89-14.55,11.23-23.63,13.21-9.52,2.08-18,6.14-26.25,11.13a22.46,22.46,0,0,0-6.43,6c-6.45,8.63-16.31,10.59-25.9,13-7.27,1.84-15.46-.19-21.94,4.83-5.22,4.05-11.48,6.14-17,9.6-1,.63-2.54.52-3.84.56-13.55.41-27.23,1.73-40,5.71-9.57,3-19.34,5.87-28.79,9.58-10.51,4.13-21.48,7.2-33,7.82-10.22.54-20,3.69-29.94,6a6.19,6.19,0,0,0-3.4,1.93c-5.19,7.17-13.18,8.29-20.93,9.83-10.22,2-20.13,4.71-29.17,10.21-6.31,3.83-13.78,4.24-20.81,5.86-5.92,1.37-11.9,2.46-17.76,4-5.62,1.5-8.85,6.7-13.72,9.48-2.84,1.62-5.4,3.58-8.53,4.85-8.27,3.34-13.17,10.47-17.48,17.7-9.26,15.55-19.06,30.75-29,45.86-2.27,3.43-5,4.85-9.3,5.28a240.28,240.28,0,0,0-39.28,7.21c-10,2.72-20.19,5.38-30.25,6.86-8.81,1.3-19-.57-25.15-9.37a6.41,6.41,0,0,0-5.81-2.93c-10.14-.16-20.23.44-30.34,1S42.27,955.73,32.8,952c-7.47-2.92-14.23-7.48-22.47-8.87-3.25-.55-6.43-3.55-9.68-5.37-9.07-5.09-18.18-4.72-27.75-1.88-4.17,1.23-8.24,3-12.76,3.09a22.67,22.67,0,0,1-9.08-2,126.68,126.68,0,0,0-15.34-5c-3.35-.89-6.09-3-9.5-3.86-2.13-.52-3.26-3-3.09-5.69a65.51,65.51,0,0,0-3.74-26.81c-2.93-8.21-8.63-11.89-16.89-9.37a62.51,62.51,0,0,1-28.9,1.81c-9.58-1.59-18.94.15-27.81,3.91-6.7,2.83-13.82,3-20.79,3.84-13.84,1.79-27.88,1.65-41.49,5.87-7,2.16-14.6,2.89-21.95,3-9.46.19-18.95.7-28.31,1.48-11.83,1-23.48-1.33-35.2-.26-2.91.26-5.58-.73-8.31-1.25-3.21-.6-3.34-3.59-3.45-6.33-.5-12,2.27-23.64,5-35.17,3.59-14.87,6.27-30.12,13.11-43.92,7.08-14.28,8.71-30,12.51-45,1.58-6.28,1.43-13,4.19-19.17,5.08-11.29,13.44-20,28.46-16.38,18.09,4.39,36,9.35,53.58,15.27,6.74,2.27,13.61,4.59,19.08,9.86,5,4.85,12.72,4.26,18.5,7.85,5.61,3.48,11.92,2.57,17.89,2.1,11.33-.88,22.59-2.54,33.88-3.84,9.28-1.06,17.47-5.83,26.45-7.85,8.34-1.87,16.7-3.68,25.13-5.08a30.56,30.56,0,0,0,17.61-9.2c2.35-2.46,4.34-5.29,6.77-7.66,9.49-9.24,18-19.4,27-29.09,11.5-12.41,25.92-20.84,40-29.8,12.06-7.71,23.2-16.4,31.3-28.44A42.74,42.74,0,0,1,73.59,645a74.67,74.67,0,0,0,15.88-20,20.52,20.52,0,0,1,9.68-9.34c8.65-3.92,13.25-11.18,17.06-19.16,4.55-9.54,10.31-17.74,19.36-23.89,6.09-4.13,12.6-4.92,19.17-5.47,21.72-1.8,43-5.73,64.27-10.47,10.52-2.34,21.23-4.4,30.29-10.09,12.14-7.62,25.52-13.26,35.54-24.48,7.47-8.35,16.54-15.58,28.4-17.79,8.9-1.65,16.88-6.54,26.05-7.54,16.2-1.76,32.21-5.11,48.75-3,8.69,1.11,17.63.37,26.46.16,3.58-.09,4.76,1.61,6.58,4.48,4.1,6.47,3.8,13.32,3.94,20.36a15.58,15.58,0,0,0,3.93,9.43c5.41,6.17,8.91,13.35,12.26,20.62a47.92,47.92,0,0,0,15.14,18.86c4.55,3.38,7.73,7.79,10.75,12.42a1.63,1.63,0,0,1,0,2.16c-2.84,4.25.78,4.41,3.25,4.63a83.81,83.81,0,0,0,11,.07c7-.31,13.48,2,20.17,3.5,5.71,1.3,11.74,1.68,17.61,2.26s11,3.11,16.57,4.36c8.73,1.95,17.33,4.63,25.91,7,8.36,2.33,18.47,3,24.47,10.53,5.52,6.91,11.88,12.83,18.17,18.89a27.89,27.89,0,0,1,7.66,13.41c.8,3,3.09,5.25,5,7.51a14.56,14.56,0,0,1,4,10.74C620.57,672,620.8,678.84,620.8,687.18Z" transform="translate(313.77 283.96)"/><path id="b1" d="M-172,1078.93c15.68,2,29.89-2.53,43.42-10A44.78,44.78,0,0,0-109,1048.37a257.28,257.28,0,0,1,14.37-26c6.53-10.67,9.69-22.77,14.14-34.35,3.71-9.65,5.61-19.12,4.47-29.09A200.23,200.23,0,0,1-76.8,938c-.07-5.82,1.15-6.2,6.33-4,10.87,4.71,21.84,9.09,34.09,9,6,0,11-3.3,16.63-4.39,6.36-1.23,11.7.13,17.56,2.94,4.88,2.34,9.21,6,15.08,6.86,3.34.52,6.88,2.8,10.23,4.41a114.26,114.26,0,0,0,26.39,8.51c6.84,1.45,13.73,2.57,20.13,1.08s12.83-1.06,19.23-1.53c2.41-.18,4.53.58,5.61,2.46,4.42,7.72,12.49,7.63,19.63,9.45,5.73,1.47,11.32.44,17.07-1,20.24-5,40.49-10,61.21-12.75,14.65-1.91,28.72-6.27,43-9.57,10.14-2.33,19.22-7.29,29.2-9.94A57.52,57.52,0,0,1,280.35,938a40,40,0,0,0,12.71-1.83,123,123,0,0,1,43.16-5.2c2.73.14,4.48,2,6.72,3s.29,2.13-.43,2.85A36.14,36.14,0,0,1,326.77,946c-10.42,2.94-15.89,9.93-20.28,19.38-7.37,15.89-11.28,32.89-17.35,49.16a83.61,83.61,0,0,1-18.42,29.23c-8.78,9-14.67,19.6-19.37,31.46C246.4,1087.67,237,1096.26,222,1097c-11.88.62-24.12,1.73-34.48,8.12-8.91,5.5-19.15,9.74-25.11,19-4,6.28-5.32,13.81-7.37,20.95-2.54,8.84-1.5,18.52-6.73,26.78-1.48,2.34-2.66,5-4.41,7.14-6.83,8.26-11.48,17.89-16.63,27.11-4.3,7.7-4.87,16.8-4,25.68.39,3.76,3.94,5.77,6.59,7,6.69,3.11,11.88,8.28,18.17,11.91,6.1,3.54,12.74,4.7,19.34,6,5,1,10.23.88,15.36,1.17,8.85.51,11.87,4,12.35,12.61.61,10.78-2.85,19.22-10.19,27.43-11.91,13.32-21.8,28.26-27.93,45.36a46.45,46.45,0,0,1-4.45,8.3,5.91,5.91,0,0,1-5.39,3.13c-11.77-1.18-22.32,3.89-33.43,6.09s-22.22,3.31-33.93,1.62c-14.52-2.08-29.26-3.43-43.95-4.67-11.53-1-23-3-34.49-4.27-14.47-1.59-28.71-5-43.3-5.62a10.76,10.76,0,0,1-3-.24c-16.6-5.55-34.19-5.9-51.11-9.78a16.6,16.6,0,0,1-6.53-3.48c-12.11-9.6-25.42-17.41-38.33-25.82a12.86,12.86,0,0,0-5.49-2.27c-10.7-.93-15.95-9.24-22.27-16.11-1.12-1.22-1.93-2.91-3.28-3.68-8.82-5-14-13.62-20.38-20.92-7.22-8.21-14.39-16.58-19.5-26.31-8-15.31-21-27.75-25.83-44.93a62,62,0,0,1-2.2-11.15c-1.36-14.57,0-29.25-1.87-43.78-1.16-8.86,1.1-17.81,6-24.13,8.82-11.31,18.7-21.66,31.65-29.48,9.37-5.65,18.08-7.13,28.06-6.88C-174.63,1079-173.3,1078.93-172,1078.93Z" transform="translate(313.77 283.96)"/><path id="b2" d="M443.81,1344.12c-13.45-2.59-27.51-2.44-40.18-8.83a7.75,7.75,0,0,0-3.75-1.21c-11.23.87-15.39-7.44-19.75-15.26a111.81,111.81,0,0,0-6.76-10.42c-8.48-11.9-16.95-23.83-23.95-36.68-4-7.37-10.06-10.72-18.18-10.8-7.16-.07-14.32-.05-21.48,0-1.65,0-3.52-.07-4.9.64-8,4.1-16.51,3.22-25,3.35-9.48.16-18.94.27-28.42.69-12.4.55-24.87-.87-37.29-2-8.24-.78-15.83-1.38-22.78-7.33-5.56-4.75-13.84-2.1-20.85-3.23-10.49-1.69-20.61-3.84-28.58-11.6a21.05,21.05,0,0,0-7.28-4.25c-5.48-2.12-8.31-6-7.6-12,1-8.27,2.84-16,7.2-23.54,7.06-12.16,16.26-23.07,21.33-36.44,2.12-5.6.81-11.53,3-17.11,2.38-6,3.76-12.42,5.51-18.67a11,11,0,0,1,3.75-5.78,139.25,139.25,0,0,1,24.41-16.13c9.26-4.67,19.25-5.71,29-6.29,18.59-1.11,28.82-11.5,35.06-27.7a85.57,85.57,0,0,1,18.48-28.83c12.06-12.48,18.93-27.57,23.12-44.07,3.38-13.3,8.83-25.81,14.34-38.28a18.44,18.44,0,0,1,12.21-10.87,53.61,53.61,0,0,0,23.66-14.37c3.74-3.89,8.1-3.92,12.4-2.38,5.44,1.93,9.5,5.9,12.61,10.82,2.92,4.63,5.95,9.19,8.95,13.77a4.91,4.91,0,0,0,4.08,2.54c5,0,10.09,1.9,14.69,1.61,12.17-.76,20.78,5,27.19,13.66,7.05,9.54,17.47,14.07,26.38,20.8,4.66,3.52,5.3,5.33,1.17,9.69A50.73,50.73,0,0,1,444.6,1016c-12.56,7.47-17.77,21.92-7.26,34.12a11.32,11.32,0,0,1,2.18,3.34c5.77,16,18.43,28.22,23.61,44.6,3.1,9.81,7.82,19,6.81,29.82-1.24,13.19,1.52,25.5,6.88,37.79,4.21,9.66,4,20.81,6.07,31.25,1.77,9.06.39,18.22.86,27.32.24,4.57.6,9,2.49,13.14,4.7,10.22,5.77,22,13.23,31a4.69,4.69,0,0,1,1.11,2.74c0,11.43,1.95,23-2.35,34.14a11.09,11.09,0,0,1-2.89,4.59c-2.83,2.51-4.44,5.71-5.75,9.21-2.42,6.44-6.41,10.62-13.81,12.1a48.44,48.44,0,0,0-20.36,9.11A16.22,16.22,0,0,1,443.81,1344.12Z" transform="translate(313.77 283.96)"/></svg>