<?xml version="1.0" standalone="no"?>
<!DOCTYPE svg PUBLIC "-//W3C//DTD SVG 20010904//EN"
 "http://www.w3.org/TR/2001/REC-SVG-20010904/DTD/svg10.dtd">
<svg version="1.0" xmlns="http://www.w3.org/2000/svg"
 width="64.000000pt" height="64.000000pt" viewBox="0 0 64.000000 64.000000"
 preserveAspectRatio="xMidYMid meet">

<g transform="translate(0.000000,64.000000) scale(0.100000,-0.100000)"
fill="#000000" stroke="none">
<path d="M244 580 c-99 -31 -180 -130 -191 -232 -15 -146 94 -280 239 -295
146 -15 280 94 295 239 15 152 -98 285 -250 294 -34 2 -76 -1 -93 -6z m161
-69 c134 -61 165 -233 61 -337 -105 -105 -274 -75 -337 61 -79 171 104 354
276 276z"/>
<path d="M227 413 c-16 -16 -15 -19 20 -55 l37 -38 -37 -38 c-35 -36 -36 -39
-20 -55 16 -16 19 -15 55 20 l38 37 38 -37 c36 -35 39 -36 55 -20 16 16 15 19
-20 55 l-37 38 37 38 c35 36 36 39 20 55 -16 16 -19 15 -55 -20 l-38 -37 -38
37 c-36 35 -39 36 -55 20z"/>
</g>
</svg>
