<?xml version="1.0" standalone="no"?>
<!DOCTYPE svg PUBLIC "-//W3C//DTD SVG 20010904//EN"
 "http://www.w3.org/TR/2001/REC-SVG-20010904/DTD/svg10.dtd">
<svg version="1.0" xmlns="http://www.w3.org/2000/svg"
 width="64.000000pt" height="64.000000pt" viewBox="0 0 64.000000 64.000000"
 preserveAspectRatio="xMidYMid meet">

<g transform="translate(0.000000,64.000000) scale(0.100000,-0.100000)"
fill="#000000" stroke="none">
<path d="M496 553 c-4 -10 1 -28 12 -42 79 -107 87 -246 21 -355 -35 -57 -34
-81 1 -81 56 0 119 168 106 282 -15 127 -114 265 -140 196z"/>
<path d="M196 472 c-73 -62 -84 -67 -135 -72 l-56 -5 -3 -68 c-4 -84 5 -97 67
-97 42 0 53 -6 129 -70 46 -39 87 -70 92 -70 26 0 30 35 28 236 -4 252 -1 249
-122 146z"/>
<path d="M396 454 c-4 -9 3 -32 14 -52 26 -43 28 -111 5 -162 -20 -44 -15 -70
14 -70 40 0 79 104 67 182 -12 81 -81 152 -100 102z"/>
</g>
</svg>
